<svg xmlns="http://www.w3.org/2000/svg" width="128" height="128" viewBox="0 0 128 128">
  <defs>
    <linearGradient id="bg" x1="0" y1="0" x2="1" y2="1">
      <stop offset="0" stop-color="#1a1430"/>
      <stop offset="1" stop-color="#3b2a5e"/>
    </linearGradient>
    <linearGradient id="gold" x1="0" y1="0" x2="0" y2="1">
      <stop offset="0" stop-color="#ffd970"/>
      <stop offset="1" stop-color="#b8860b"/>
    </linearGradient>
  </defs>
  <rect width="128" height="128" rx="20" fill="url(#bg)"/>
  <!-- castle silhouette -->
  <g fill="url(#gold)">
    <rect x="24" y="56" width="14" height="48"/>
    <rect x="20" y="48" width="22" height="10"/>
    <rect x="20" y="40" width="6" height="8"/>
    <rect x="28" y="40" width="6" height="8"/>
    <rect x="36" y="40" width="6" height="8"/>
    <rect x="57" y="40" width="14" height="64"/>
    <rect x="53" y="32" width="22" height="10"/>
    <rect x="53" y="24" width="6" height="8"/>
    <rect x="61" y="24" width="6" height="8"/>
    <rect x="69" y="24" width="6" height="8"/>
    <rect x="90" y="56" width="14" height="48"/>
    <rect x="86" y="48" width="22" height="10"/>
    <rect x="86" y="40" width="6" height="8"/>
    <rect x="94" y="40" width="6" height="8"/>
    <rect x="102" y="40" width="6" height="8"/>
    <rect x="38" y="84" width="19" height="20"/>
    <rect x="71" y="84" width="19" height="20"/>
  </g>
  <circle cx="64" cy="14" r="5" fill="#ffd970"/>
</svg>
